# xmcd CD database file
#
# Track frame offsets:
#	150
#	20370
#	42105
#	62377
#
# Disc length: 1118 seconds
#
# Revision: 0
# Processed by: cddbd v1.5.1PL0 Copyright (c) Steve Scherf et al.
# Submitted via: CDex 1.51
#
DISCID=24045c04
DTITLE=goddess family club - きみを変えられない、ぼくが伝わらない
DYEAR=1997
DGENRE=Anime
TTITLE0=きみを変えられない、ぼくが伝わらない
TTITLE1=展覧会の絵
TTITLE2=きみを変えられない、ぼくが伝わらない karaoke
TTITLE3=展覧会の絵 karaoke
EXTD=YEAR: 1997
EXTT0=
EXTT1=
EXTT2=
EXTT3=
PLAYORDER=
